<svg xmlns="http://www.w3.org/2000/svg" width="800.003" height="618.867" viewBox="0 0 800.003 618.867" xmlns:xlink="http://www.w3.org/1999/xlink" role="img" artist="Katerina Limpitsouni" source="https://undraw.co/"><g transform="translate(-510 -218.568)"><path d="M15.18,488.765a1.456,1.456,0,0,0,1.308,1.575H668.472a1.6,1.6,0,0,0,0-3.15H16.488a1.456,1.456,0,0,0-1.308,1.575Z" transform="translate(571.678 347.095)" fill="#d6d6e3"/><path d="M353.105,370.945a27.478,27.478,0,0,1-54.387,0H229.146V524.776H422.677V370.945H353.105Z" transform="translate(584.09 309.509)" fill="#d6d6e3"/><path d="M789.214,487.736H10.789A10.8,10.8,0,0,1,0,476.947V32.7A10.8,10.8,0,0,1,10.789,21.911H789.214A10.8,10.8,0,0,1,800,32.7V476.947a10.8,10.8,0,0,1-10.789,10.789Z" transform="translate(510 196.656)" fill="#090814"/><rect width="761.747" height="429.819" transform="translate(530.088 236.57)" fill="#fff"/><path d="M17.679,95.624l-.015.015c-.139-.157-.281-.311-.431-.461A10.095,10.095,0,0,0,2.957,109.454c.15.15.3.292.461.431L3.4,109.9l14.276,14.276L31.955,109.9A10.095,10.095,0,1,0,17.679,95.624Z" transform="translate(665.079 181.943)" fill="#ff6584"/><path d="M17.679,95.624l-.015.015c-.139-.157-.281-.311-.431-.461A10.095,10.095,0,0,0,2.957,109.454c.15.15.3.292.461.431L3.4,109.9l14.276,14.276L31.955,109.9A10.095,10.095,0,1,0,17.679,95.624Z" transform="translate(711.006 181.943)" fill="#e6e6e6"/><path d="M17.679,95.624l-.015.015c-.139-.157-.281-.311-.431-.461A10.095,10.095,0,0,0,2.957,109.454c.15.15.3.292.461.431L3.4,109.9l14.276,14.276L31.955,109.9A10.095,10.095,0,1,0,17.679,95.624Z" transform="translate(756.933 181.943)" fill="#e6e6e6"/><g transform="translate(577.972 255.886)"><ellipse cx="34.255" cy="34.255" rx="34.255" ry="34.255" transform="translate(0 0)" fill="#da291c"/><ellipse cx="11.011" cy="11.011" rx="11.011" ry="11.011" transform="translate(25.691 24.468)" fill="#fff"/><path d="M517.7,280.754c.685-1.054.339-2.488.819-3.65.755-1.825,3.1-2.252,5.067-2.419a15.1,15.1,0,0,1,3.926.01,3.768,3.768,0,0,1,2.723,1.974c.291.584.218-1.245.031-3.594a11.351,11.351,0,0,0-8.7-10.155l-.083-.019a21.522,21.522,0,0,0-7.307-.672,9.508,9.508,0,0,0-6.4,3.27c-.7.882-1.189,1.922-1.966,2.733-1.366,1.425-3.391,1.944-5.251,2.605a15.844,15.844,0,0,0-5.758,3.322,8.588,8.588,0,0,0-2.783,5.9,5.715,5.715,0,0,0,4.287,5.805,3,3,0,0,1,1.28.552c2.549,1.976-.359,4.045-.339,6.27.017,1.856,2.083,3.066,3.938,3.153a7.472,7.472,0,0,0,7.442-5.912,15.574,15.574,0,0,0-.118-4.627c-.208-1.761,3.584-5.907,1.079-2.868a4.358,4.358,0,0,0-.958,2.016c-.417,2.428,1.792,3.244,3.186,4.59a5.773,5.773,0,0,1,1.4,5.942,6.656,6.656,0,0,0,1.21-8.4c-.449-.688-1.027-1.287-1.453-1.99-.664-1.1-.847-3.482,1.012-3.417C515.3,281.219,516.677,282.323,517.7,280.754Z" transform="translate(-481.33 -244.615)" fill="#2f2e41"/></g><path d="M919.759,686.957H230.773a1.184,1.184,0,0,1,0-2.364H919.759a1.184,1.184,0,0,1,0,2.364Z" transform="translate(348.31 -63.487)" fill="#f2f2f2"/><path d="M949.813,722.553s8.825-1.343,11.265-3.567,13.122-5.818,14.153-2.849,15.145,13.555,5.154,14.844-23.426,1.25-26.287-.051S949.813,722.553,949.813,722.553Z" transform="translate(32.145 -110.822)" fill="#a8a8a8"/><g transform="translate(1087.443 407.716)"><path d="M495.813,113.6a211.494,211.494,0,0,0-32.8-2.415,215.829,215.829,0,0,0-30.257,2.027c0-.142,0-.284.011-.425a31.531,31.531,0,0,1,63.044.385C495.811,113.321,495.813,113.462,495.813,113.6Z" transform="translate(-396.986 -81.902)" fill="#da291c"/><g transform="translate(35.673)" opacity="0.1"><path d="M468.063,81.086a31.541,31.541,0,0,0-35.749,30.31c-.006.142-.008.284-.011.425,2.743-.394,5.584-.731,8.5-1.012a31.536,31.536,0,0,1,27.26-29.723Z" transform="translate(-432.304 -80.802)" fill="#fff"/></g><path d="M376.354,222.536a127.006,127.006,0,0,0-13.8-2.929,199.627,199.627,0,0,0-23.011-2.211c-3.21-.131-6.48-.2-9.785-.2-2.62,0-5.219.042-7.781.127a205.97,205.97,0,0,0-22.466,1.9,132.107,132.107,0,0,0-16.348,3.314c-12.53,3.464-19.431,8.107-19.431,13.072s6.9,9.608,19.431,13.072a159.783,159.783,0,0,0,31.514,4.861c4.886.317,9.938.478,15.08.478,5.159,0,10.228-.163,15.129-.48a165.8,165.8,0,0,0,29.083-4.232c.044-.013.087-.023.131-.034.563-.14,1.117-.286,1.665-.432.2-.055.391-.108.586-.161a.209.209,0,0,1,.034-.011c.186-.051.37-.1.554-.154.368-.106.732-.209,1.09-.317l.047-.013c.311-.093.616-.186.918-.279.248-.078.493-.154.736-.233l.527-.171c.127-.042.252-.083.375-.125.167-.055.334-.112.5-.169.07-.023.14-.047.207-.072.159-.053.313-.108.468-.163l.5-.18c.138-.049.275-.1.41-.15.114-.044.227-.087.341-.129.311-.116.616-.237.916-.356.15-.061.3-.121.449-.182s.294-.121.438-.182q.355-.149.7-.3c.11-.051.222-.1.33-.146l.245-.112c.059-.025.119-.053.176-.08.214-.1.425-.2.633-.3q1.194-.571,2.228-1.168c4.328-2.478,6.611-5.227,6.611-8.084C395.785,230.643,388.884,226,376.354,222.536Zm-.114,25.737a159.707,159.707,0,0,1-31.586,4.857c-4.827.307-9.817.466-14.894.466-5.06,0-10.033-.157-14.845-.463a159.681,159.681,0,0,1-31.635-4.859c-12.331-3.411-19.122-7.908-19.122-12.665a5.1,5.1,0,0,1,.157-1.246c1.079-4.292,7.718-8.308,18.965-11.419a132.012,132.012,0,0,1,16.223-3.295,206.536,206.536,0,0,1,22.6-1.9q3.784-.124,7.656-.123c3.261,0,6.486.066,9.656.193a199.216,199.216,0,0,1,23.145,2.222,126.732,126.732,0,0,1,13.679,2.908c11.245,3.111,17.882,7.125,18.963,11.415a5.041,5.041,0,0,1,.159,1.251C395.362,240.365,388.571,244.862,376.24,248.273Z" transform="translate(-263.734 -188.333)" fill="#3f3d56"/><path d="M396.792,298.311c0,2.827-2.33,5.5-6.49,7.891-.692.4-1.437.787-2.228,1.168-.207.1-.419.2-.633.3-.057.028-.116.055-.176.08l-.246.112c-.108.047-.22.1-.33.146q-.343.149-.7.3c-.144.061-.292.123-.438.182s-.3.121-.449.182c-.3.118-.605.239-.916.356-.114.042-.226.085-.341.129-.135.051-.273.1-.411.15l-.5.18c-.154.055-.309.11-.468.163-.068.025-.138.049-.207.072-.165.057-.332.114-.5.169-.123.042-.248.083-.375.125l-.527.171c-.243.078-.489.154-.736.233-.3.093-.607.186-.918.279l-.047.013c-.358.108-.722.212-1.09.317-.184.051-.368.1-.554.155a.2.2,0,0,0-.034.011c-.195.053-.389.106-.586.161-.546.144-1.1.29-1.665.432-.044.011-.087.021-.131.034a167.277,167.277,0,0,1-29.091,4.218c-4.827.311-9.859.476-15.029.476-5.216,0-10.291-.167-15.156-.485-29.043-1.894-50.657-9.106-50.657-17.715a5.307,5.307,0,0,1,.237-1.545c.013.036.025.07.04.106,3.02,7.932,24.451,14.341,52.257,15.905,4.26.241,8.672.366,13.188.366,4.535,0,8.964-.127,13.241-.368,27.784-1.57,49.193-7.982,52.2-15.907q.076-.19.133-.381A5.355,5.355,0,0,1,396.792,298.311Z" transform="translate(-264.862 -250.844)" fill="#3f3d56"/><path d="M328.338,278.234c-3.522,0-7.265-.758-7.265-2.162s3.743-2.162,7.265-2.162,7.265.758,7.265,2.162S331.86,278.234,328.338,278.234Zm0-3.9c-4.032,0-6.842.916-6.842,1.739s2.81,1.739,6.842,1.739,6.842-.916,6.842-1.739S332.37,274.333,328.338,274.333Z" transform="translate(-308.939 -233.044)" fill="#3f3d56"/><path d="M399.338,325.234c-3.522,0-7.265-.758-7.265-2.162s3.743-2.162,7.265-2.162,7.265.758,7.265,2.162S402.86,325.234,399.338,325.234Zm0-3.9c-4.032,0-6.842.916-6.842,1.739s2.81,1.739,6.842,1.739,6.842-.916,6.842-1.739S403.37,321.333,399.338,321.333Z" transform="translate(-364.914 -270.098)" fill="#3f3d56"/><path d="M768.338,278.234c-3.522,0-7.265-.758-7.265-2.162s3.743-2.162,7.265-2.162,7.265.758,7.265,2.162S771.86,278.234,768.338,278.234Zm0-3.9c-4.032,0-6.842.916-6.842,1.739s2.81,1.739,6.842,1.739,6.842-.916,6.842-1.739S772.37,274.333,768.338,274.333Z" transform="translate(-655.826 -233.044)" fill="#3f3d56"/><path d="M697.338,325.234c-3.522,0-7.265-.758-7.265-2.162s3.743-2.162,7.265-2.162,7.265.758,7.265,2.162S700.86,325.234,697.338,325.234Zm0-3.9c-4.032,0-6.842.916-6.842,1.739s2.81,1.739,6.842,1.739,6.842-.916,6.842-1.739S701.37,321.333,697.338,321.333Z" transform="translate(-599.851 -270.098)" fill="#3f3d56"/><path d="M548.338,347.234c-3.522,0-7.265-.758-7.265-2.162s3.743-2.162,7.265-2.162,7.265.758,7.265,2.162S551.86,347.234,548.338,347.234Zm0-3.9c-4.032,0-6.842.916-6.842,1.739s2.81,1.739,6.842,1.739,6.842-.916,6.842-1.739S552.37,343.333,548.338,343.333Z" transform="translate(-482.383 -287.442)" fill="#3f3d56"/><path d="M558,590.111c0-10.71,4.775-7.757,10.666-7.757s10.666-2.953,10.666,7.757-10.666,31.029-10.666,31.029S558,600.822,558,590.111Z" transform="translate(-502.641 -516.294)" fill="#ff6584"/><path d="M576,650.719c0-4.868,2.171-3.526,4.848-3.526s4.848-1.342,4.848,3.526-4.848,14.1-4.848,14.1S576,655.587,576,650.719Z" transform="translate(-514.823 -581)" opacity="0.1"/></g><g transform="translate(646.483 526.14)"><rect width="19.716" height="3.129" transform="matrix(1, -0.001, 0.001, 1, 0.522, 75.896)" fill="#3f3d56"/><path d="M933.115,664.028l-4.068.941-154.6.083-1.39-3.239a32.692,32.692,0,0,1-2.4-17.678c.666-4.473,2.334-8.918,6.124-10.849l6.86-45.694,85.53-.153,33.091,26.69s15.61-.281,24.09,10.277a24.78,24.78,0,0,1,5.183,13.648l.335,5.492Z" transform="translate(-770.332 -587.439)" fill="#da291c"/><circle cx="19.09" cy="19.09" r="19.09" transform="translate(109.738 56.734)" fill="#3f3d56"/><circle cx="10.047" cy="10.047" r="10.047" transform="translate(118.781 65.777)" fill="#ccc"/><circle cx="19.09" cy="19.09" r="19.09" transform="translate(15.541 56.786)" fill="#3f3d56"/><circle cx="10.047" cy="10.047" r="10.047" transform="translate(24.583 65.828)" fill="#ccc"/><path d="M718.268,406.757l-46.179.019h-5.637l-9.517.007v-.694l-.007-8.37-.007-9.4h6.333l5.637-.006,9.985-.007h5.637l11.528-.007Z" transform="translate(-599.484 -383.187)" fill="#fff"/><path d="M749.268,406.79l-24.406.013-.006-4.789v-8.37l-.007-5.3h3.574l5.637-.007,15.2-.006Z" transform="translate(-699.332 -383.187)" fill="#fff"/><rect width="3.129" height="5.946" transform="matrix(1, -0.001, 0.001, 1, 57.458, 37.375)" fill="#3f3d56"/><rect width="3.129" height="5.946" transform="matrix(0.001, 1, -1, 0.001, 112.213, 28.895)" fill="#3f3d56"/><path d="M0,13.081H.344A6.541,6.541,0,0,0,6.885,6.541h0A6.541,6.541,0,0,0,.344,0H0Z" transform="matrix(1, -0.001, 0.001, 1, 108.458, 17.192)" fill="#3f3d56"/><path d="M782.763,643.053a10.11,10.11,0,0,1-5.518-19.14,24.781,24.781,0,0,1,5.184,13.648Z" transform="translate(-621.224 -586.946)" fill="#3f3d56"/></g><path d="M689.553,325.454l8.456-6.763c-6.569-.725-9.268,2.858-10.373,5.693-5.132-2.131-10.719.662-10.719.662l16.919,6.142a12.8,12.8,0,0,0-4.283-5.734Z" transform="translate(222.538 188.926)" fill="#3f3d56"/><path d="M464.553,260.454l8.456-6.763c-6.569-.725-9.268,2.858-10.373,5.693-5.132-2.131-10.719.662-10.719.662l16.919,6.142A12.8,12.8,0,0,0,464.553,260.454Z" transform="translate(173.474 197.885)" fill="#3f3d56"/><path d="M831.553,231.454l8.456-6.763c-6.569-.725-9.268,2.858-10.373,5.693-5.132-2.131-10.719.662-10.719.662l16.919,6.142A12.8,12.8,0,0,0,831.553,231.454Z" transform="translate(159.014 183.12)" fill="#3f3d56"/><path d="M751.965,311.955H634.892V239.069H751.965Zm-114.349-2.724H749.241V241.793H637.616Z" transform="translate(517.215 27.154)" fill="#e5e5e5"/><rect width="114.349" height="70.162" transform="translate(1153.469 267.585)" fill="#fff"/><path d="M753.332,260.942v-4.308H737.469V243.16h-4.308v13.474H704.92V243.16h-4.308v13.474H657.055V243.16h-4.308v13.474H638.983v4.308h13.764V277.7H638.983V282h13.764v17.95H638.983v4.308h36.979v9.061h4.308v-9.062h20.343v9.061h4.308v-9.061h48.411v-4.308H704.92V282h48.411V277.7H737.469V260.942Zm-52.719,0v5.265H657.055v-5.265Zm-43.558,9.573h43.558v7.18H657.055Zm0,29.437V282h18.907v17.95Zm43.558,0H680.27V282h20.343ZM733.161,277.7H704.92V260.942h28.241Z" transform="translate(514.485 24.425)" fill="#e6e6e6"/><path d="M796.292,163.7c0,7.564-13.7,24.414-13.7,24.414s-13.7-16.85-13.7-24.414a13.7,13.7,0,1,1,27.391,0Z" transform="translate(434.781 105.109)" fill="#da291c"/><path d="M815.108,187.246a6.261,6.261,0,1,1-6.261-6.261,6.261,6.261,0,0,1,6.261,6.261Z" transform="translate(408.531 80.963)" fill="#fff" style="isolation:isolate"/><ellipse cx="5.568" cy="5.568" rx="5.568" ry="5.568" transform="translate(1211.809 297.821)" fill="#da291c"/><g transform="translate(1241.573 310.755)"><path d="M791.834,576.342h-1.262a.355.355,0,0,1-.355-.355v-1.656a.355.355,0,0,1,.355-.355h1.262a.355.355,0,0,1,.355.355v1.656A.355.355,0,0,1,791.834,576.342Z" transform="translate(-787.487 -573.977)" fill="#3f3d56"/><path d="M818.331,595.923h-6.466a.671.671,0,0,1-.67-.67V582.715a.671.671,0,0,1,.67-.67h6.466a.671.671,0,0,1,.67.67v12.538A.671.671,0,0,1,818.331,595.923Z" transform="translate(-801.865 -581.648)" fill="#3f3d56"/><path d="M787.885,595.923h-11.2a.671.671,0,0,1-.67-.67V582.715a.671.671,0,0,1,.67-.67h11.2a.671.671,0,0,1,.67.67v12.538A.671.671,0,0,1,787.885,595.923Z" transform="translate(-776.018 -581.648)" fill="#da291c"/><path d="M786.993,576.342h-1.262a.355.355,0,0,1-.355-.355v-1.656a.355.355,0,0,1,.355-.355h1.262a.355.355,0,0,1,.355.355v1.656A.355.355,0,0,1,786.993,576.342Z" transform="translate(-784.003 -573.977)" fill="#da291c"/><path d="M793.527,599.087h-1.5a.2.2,0,0,1-.2-.2V596.6a.2.2,0,0,1,.2-.2h1.5a.2.2,0,0,1,.2.2v2.287A.2.2,0,0,1,793.527,599.087Z" transform="translate(-788.657 -591.727)" fill="#fff"/><path d="M805.468,599.087h-1.5a.2.2,0,0,1-.2-.2V596.6a.2.2,0,0,1,.2-.2h1.5a.2.2,0,0,1,.2.2v2.287A.2.2,0,0,1,805.468,599.087Z" transform="translate(-797.249 -591.727)" fill="#fff"/><path d="M793.527,616.192h-1.5a.2.2,0,0,1-.2-.2v-2.287a.2.2,0,0,1,.2-.2h1.5a.2.2,0,0,1,.2.2v2.287A.2.2,0,0,1,793.527,616.192Z" transform="translate(-788.657 -605.239)" fill="#fff"/><path d="M805.468,616.192h-1.5a.2.2,0,0,1-.2-.2v-2.287a.2.2,0,0,1,.2-.2h1.5a.2.2,0,0,1,.2.2v2.287A.2.2,0,0,1,805.468,616.192Z" transform="translate(-797.249 -605.239)" fill="#fff"/></g><g transform="translate(1170.488 286.593)"><path d="M310.949,250.465c0-2.663-2.16-8.982-4.825-8.982s-4.825,6.319-4.825,8.982a4.825,4.825,0,0,0,9.65,0Z" transform="translate(-301.298 -241.483)" fill="#3f3d56"/><path d="M327.693,298.65a.055.055,0,0,1-.055-.055V287.331a.055.055,0,1,1,.11,0V298.6A.055.055,0,0,1,327.693,298.65Z" transform="translate(-322.868 -282.578)" fill="#ccc"/><path d="M315.144,284.231a.055.055,0,0,1-.042-.019l-2.775-3.2a.055.055,0,0,1,.083-.072l2.775,3.2a.055.055,0,0,1-.042.091Z" transform="translate(-310.319 -276.926)" fill="#ccc"/><path d="M327.693,301.771a.055.055,0,0,1-.039-.094l1.577-1.577a.055.055,0,1,1,.078.078l-1.577,1.577A.055.055,0,0,1,327.693,301.771Z" transform="translate(-322.868 -293.054)" fill="#ccc"/></g><path d="M0,13.441a1.5,1.5,0,0,1-1.239-.653A1.5,1.5,0,0,1-.847,10.7L16.605-1.238a1.5,1.5,0,0,1,2.085.391A1.5,1.5,0,0,1,18.3,1.238L.847,13.179A1.493,1.493,0,0,1,0,13.441Z" transform="translate(830.591 549.608) rotate(11)" fill="#da291c"/><path d="M0,13.441a1.5,1.5,0,0,1-1.239-.653A1.5,1.5,0,0,1-.847,10.7L16.605-1.238a1.5,1.5,0,0,1,2.085.391A1.5,1.5,0,0,1,18.3,1.238L.847,13.179A1.493,1.493,0,0,1,0,13.441Z" transform="translate(842.136 535.944) rotate(11)" fill="#da291c"/><path d="M0,13.441a1.5,1.5,0,0,1-1.239-.653A1.5,1.5,0,0,1-.847,10.7L16.605-1.238a1.5,1.5,0,0,1,2.085.391A1.5,1.5,0,0,1,18.3,1.238L.847,13.179A1.493,1.493,0,0,1,0,13.441Z" transform="translate(848.202 550.473) rotate(11)" fill="#da291c"/><path d="M0,13.441a1.5,1.5,0,0,1-1.239-.653A1.5,1.5,0,0,1-.847,10.7L16.605-1.238a1.5,1.5,0,0,1,2.085.391A1.5,1.5,0,0,1,18.3,1.238L.847,13.179A1.493,1.493,0,0,1,0,13.441Z" transform="translate(868.973 535.079) rotate(11)" fill="#da291c"/></g></svg>