<svg xmlns="http://www.w3.org/2000/svg" width="394.727" height="791.624" viewBox="0 0 394.727 791.624" xmlns:xlink="http://www.w3.org/1999/xlink" role="img" artist="Katerina Limpitsouni" source="https://undraw.co/"><g transform="translate(-774.512 -144.188)"><g transform="translate(774.512 144.188)"><path d="M661.092,267.313h-4.353V148.155a68.963,68.963,0,0,0-68.962-68.962H335.328a68.963,68.963,0,0,0-68.963,68.962v653.7a68.963,68.963,0,0,0,68.962,68.962h252.45a68.963,68.963,0,0,0,68.963-68.963V352.13h4.352Z" transform="translate(-266.365 -79.193)" fill="#090814"/><path d="M589.025,95.686H556.073a24.468,24.468,0,0,1-22.654,33.71H388.787a24.468,24.468,0,0,1-22.655-33.71H335.355a51.5,51.5,0,0,0-51.5,51.5V799.932a51.5,51.5,0,0,0,51.5,51.5h253.66a51.5,51.5,0,0,0,51.5-51.5V147.188a51.5,51.5,0,0,0-51.491-51.5Z" transform="translate(-264.822 -77.743)" fill="#fff"/></g><g transform="translate(-341.488 63.887)"><g transform="translate(0 49.158)"><path d="M305.024,283.02c0,61.894-36.795,83.5-82.184,83.5s-82.184-21.611-82.184-83.5S222.84,142.387,222.84,142.387,305.024,221.126,305.024,283.02Z" transform="translate(999.344 176.27)" fill="#f2f2f2"/><path d="M85.887,310.519l.842-51.8,35.028-64.084-34.9,55.958.378-23.292,24.142-46.364-24.042,40.2h0l.681-41.891,25.85-36.911L88.127,172.661l.425-76.812L85.879,197.535l.22-4.2L59.815,153.108l25.862,48.284-2.449,46.784-.073-1.242L52.856,204.6l30.208,46.724-.306,5.85-.055.088.025.481-6.213,118.7h8.3l1-61.309,30.134-46.609Z" transform="translate(1133.305 222.809)" fill="#e6e6e6"/></g><g transform="translate(39 37.887)"><path d="M344.346,316.665c0,76.7-45.6,103.476-101.845,103.476S140.656,393.36,140.656,316.665,242.5,142.387,242.5,142.387,344.346,239.963,344.346,316.665Z" transform="translate(1102.66 120.412)" fill="#f2f2f2"/><path d="M93.789,361.876l1.043-64.193,43.408-79.415L94.991,287.614l.468-28.864,29.917-57.456L95.583,251.111h0l.844-51.913,32.034-45.742-31.9,37.581.527-95.188L93.779,221.862l.273-5.2L61.48,166.807l32.049,59.835-3.035,57.977-.09-1.539L52.856,230.617l37.435,57.9-.379,7.25-.068.109.031.6-7.7,147.1H92.461L93.7,367.6l37.343-57.76Z" transform="translate(1247.665 166.951)" fill="#e6e6e6"/></g><g transform="translate(378.391 36.451)"><circle cx="20.597" cy="20.597" r="20.597" transform="translate(914.156 243.577)" fill="#2f2e41"/><path d="M691.385,108.662l6.881-5.771a8.133,8.133,0,0,0,.607-11.9h0a8.133,8.133,0,0,0-13.407,2.7l-3.284,8.393-26.293,45.137-13.366,36.592,10.737,12.928,14.461-44.7Z" transform="translate(316.771 89.998)" fill="#ed9da0"/><path d="M501.789,108.662l-6.881-5.771a8.133,8.133,0,0,1-.607-11.9h0a8.133,8.133,0,0,1,13.407,2.7l3.284,8.393,26.293,45.137,14.68,37.03-12.051,12.489-14.461-44.7Z" transform="translate(360 89.998)" fill="#ed9da0"/><circle cx="10.517" cy="10.517" r="10.517" transform="translate(925.113 233.06)" fill="#090814"/><path d="M356.577,500.975l-9.422-.657.438-128.4,23.226,5.7Z" transform="translate(579.928 71.708)" fill="#ed9da0"/><path d="M591.908,667.856h0a9.159,9.159,0,0,1-8.443-6.134c-2.049-6.021-.99-11.749,2.578-17.242l-1.166-8.161a9.079,9.079,0,0,1,2.137-7.241l6.041-6.947v8.764c4.422-3.867,7.148-4.007,10.956-.876L600.5,647.985l.856,9.844a9.231,9.231,0,0,1-9.453,10.027Z" transform="translate(334.03 -63.25)" fill="#090814"/><path d="M616.932,263.468l-36.811-.876c5.216-5.07,12.686-24.512,11.394-30.237h17.967C607.326,238.247,611.5,258.262,616.932,263.468Z" transform="translate(334.692 48.691)" fill="#ed9da0"/><path d="M619.5,326.055l-50.834-14.9,1.753-21.911L566.038,266.9c.447-2.425-11.123-32.374-10.517-34.62,2.42-8.972,8.759-7.732,13.366-14.242.748-1.057,6.586,6.377,10.362,11.4.448.774.756,1.3.968,1.655a13.085,13.085,0,0,1,1.763,7.961l0,.048h0c-2.069,7.161,2.684,4.225,10.137,4.349h0c6.323.105,12.051,5.115,12.051-1.208h0c-.01-.358-.026-.733-.043-1.118a17.636,17.636,0,0,1,2.22-9.273,38.533,38.533,0,0,1,2.016-3.5c4.277-6.047,10.166-14.083,10.487-12.944,1.351,4.795,8.3,8.823,10.737,17.31.375,1.306-1.883,9.235-1.753,10.517.976,9.611-.876,14.9-1.753,22.349A188.786,188.786,0,0,0,619.5,326.055Z" transform="translate(341.764 53.591)" fill="#da291c"/><path d="M614.441,438.2l-28.923-8.764-.438-26.293-22.788-43.822,8.764-14.461,49.957,13.147C624.423,379.85,620.666,407.949,614.441,438.2Z" transform="translate(339.813 16.38)" fill="#090814"/><path d="M348.028,317.977H332.251l-29.36-41.193,10.517-8.765Z" transform="translate(592.641 101.547)" fill="#2f2e41"/><path d="M604.443,409.592H578.229a31.048,31.048,0,0,1-17.447-5.332,27.709,27.709,0,0,1-8.926-35.423h0l52.587,2.629Z" transform="translate(343.676 9.494)" fill="#090814"/><path d="M584.887,374.513l-23.077-.7q-.13-.329-.246-.66c-3.069-8.741,1.546-18.243,10.085-21.836.86-.362,1.733-.7,2.625-1A13.784,13.784,0,0,1,592.6,363.091a34.749,34.749,0,0,1-.327,5.25,7.216,7.216,0,0,1-7.383,6.172Z" transform="translate(340.295 15.035)" fill="#ed9da0"/><path d="M322.629,364.472h-9.2l-1.315-74.5,25.856-.438Z" transform="translate(589.993 95.367)" fill="#ed9da0"/><path d="M558.709,510.689h0a9.159,9.159,0,0,1-8.443-6.134c-2.049-6.021-.99-11.749,2.578-17.242l-1.166-8.161a9.079,9.079,0,0,1,2.137-7.241l6.041-6.947v8.764c4.422-3.867,7.148-4.007,10.956-.876l-3.506,17.967.856,9.844a9.231,9.231,0,0,1-9.453,10.027Z" transform="translate(343.564 -18.113)" fill="#090814"/><circle cx="17.967" cy="17.967" r="17.967" transform="translate(917.443 251.685)" fill="#ed9da0"/><path d="M617.73,198.594c0,9.2-8.332-3.944-17.529-3.944s-15.776,13.141-15.776,3.944a16.652,16.652,0,0,1,33.3,0Z" transform="translate(333.456 63.169)" fill="#090814"/></g><line x2="288" transform="translate(1181.5 221.5)" fill="none" stroke="#090814" stroke-linecap="round" stroke-width="5"/><path d="M356.2,605.319H.321v-3.3H356.364Z" transform="translate(1135.046 46.393)" fill="#f2f2f2"/></g><g transform="translate(-325.488 43.887)"><path d="M8,0H56a8,8,0,0,1,0,16H8A8,8,0,0,1,8,0Z" transform="translate(1232 173)" fill="#da291c"/><path d="M8,0H56a8,8,0,0,1,0,16H8A8,8,0,0,1,8,0Z" transform="translate(1300 173)" fill="#e6e6e6"/></g><path d="M8,0h98a8,8,0,0,1,0,16H8A8,8,0,0,1,8,0Z" transform="translate(823.512 770.887)" fill="#090814"/><path d="M8,0A8,8,0,1,1,0,8,8,8,0,0,1,8,0Z" transform="translate(949.512 770.887)" fill="#da291c"/><path d="M8,0H216a8,8,0,0,1,0,16H8A8,8,0,0,1,8,0Z" transform="translate(823.512 794.887)" fill="#e6e6e6"/><path d="M8,0H216a8,8,0,0,1,0,16H8A8,8,0,0,1,8,0Z" transform="translate(823.512 818.887)" fill="#e6e6e6"/><path d="M23336.635,20859.254a51.678,51.678,0,0,1-44.131-44.029v-10.971h358.049v8.514a51.65,51.65,0,0,1-44.406,46.486Z" transform="translate(-22499.629 -19939.871)" fill="#090814"/><g transform="translate(-341.488 43.887)"><path d="M16.5,0A16.5,16.5,0,1,1,0,16.5,16.5,16.5,0,0,1,16.5,0Z" transform="translate(1165 836)" fill="#da291c"/><path d="M16.5,0A16.5,16.5,0,1,1,0,16.5,16.5,16.5,0,0,1,16.5,0Z" transform="translate(1230 836)" fill="#3f3d56"/><path d="M16.5,0A16.5,16.5,0,1,1,0,16.5,16.5,16.5,0,0,1,16.5,0Z" transform="translate(1296 836)" fill="#3f3d56"/><path d="M16.5,0A16.5,16.5,0,1,1,0,16.5,16.5,16.5,0,0,1,16.5,0Z" transform="translate(1426 836)" fill="#3f3d56"/><path d="M16.5,0A16.5,16.5,0,1,1,0,16.5,16.5,16.5,0,0,1,16.5,0Z" transform="translate(1361 836)" fill="#3f3d56"/></g><path d="M16.5,0A16.5,16.5,0,1,1,0,16.5,16.5,16.5,0,0,1,16.5,0Z" transform="translate(1086.512 810.887)" fill="#da291c"/><path d="M16.5,0A16.5,16.5,0,1,1,0,16.5,16.5,16.5,0,0,1,16.5,0Z" transform="translate(1086.512 769.887)" fill="#e6e6e6"/><path d="M16.5,0A16.5,16.5,0,1,1,0,16.5,16.5,16.5,0,0,1,16.5,0Z" transform="translate(1086.512 728.887)" fill="#e6e6e6"/><path d="M24,0A24,24,0,1,1,0,24,24,24,0,0,1,24,0Z" transform="translate(1079.512 553.887)" fill="#da291c"/><g transform="translate(-341.488 43.887)"><path d="M12,0A12,12,0,1,1,0,12,12,12,0,0,1,12,0Z" transform="translate(1433 546)" fill="#fe6583"/><path d="M6.37-1.074c-.454-1.085,0-4.34,0-4.34s-3.207.427-4.275,0-1.069-1.281,0-1.708,4.275,0,4.275,0-.454-3.247,0-4.329,1.362-1.082,1.815,0,0,4.329,0,4.329,3.207-.427,4.275,0,1.069,1.281,0,1.708-4.275,0-4.275,0,.454,3.255,0,4.34S6.824.011,6.37-1.074Z" transform="translate(1437.723 564.262)" fill="#f2f2f2"/></g></g></svg>