<svg xmlns="http://www.w3.org/2000/svg" width="654.016" height="451.84" viewBox="0 0 654.016 451.84" xmlns:xlink="http://www.w3.org/1999/xlink" role="img" artist="Katerina Limpitsouni" source="https://undraw.co/">
  <g id="Group_266" data-name="Group 266" transform="translate(-632.992 -314.08)">
    <path id="Path_4661-602" data-name="Path 4661" d="M1209.326,232.384H577.582a11.246,11.246,0,0,0-11.136,11.328V672.92a11.24,11.24,0,0,0,11.136,11.3h631.744a11.241,11.241,0,0,0,11.136-11.3V243.713a11.246,11.246,0,0,0-11.135-11.328Z" transform="translate(66.546 81.695)" fill="#090814"/>
    <path id="Path_4660-603" data-name="Path 4660" d="M1114.415,232.384H575.938a9.513,9.513,0,0,0-9.492,9.512V602.275a9.508,9.508,0,0,0,9.492,9.492h538.476a9.508,9.508,0,0,0,9.492-9.492V241.9a9.513,9.513,0,0,0-9.491-9.512Z" transform="translate(68.79 83.939)" fill="#090814"/>
    <path id="Path_4021-604" data-name="Path 4021" d="M1189.648,232.384H577.241a10.819,10.819,0,0,0-10.8,10.818V653.059a10.814,10.814,0,0,0,10.8,10.8h612.407a10.814,10.814,0,0,0,10.8-10.8V243.2a10.818,10.818,0,0,0-10.794-10.818Z" transform="translate(67.554 83.939)" fill="#fff"/>
    <path id="Path_4026-605" data-name="Path 4026" d="M1149.348,260.072H576.322a2.279,2.279,0,0,1,0-4.558h573.027a2.279,2.279,0,0,1,0,4.558Z" transform="translate(89.317 112.723)" fill="#cacaca"/>
    <ellipse id="Ellipse_687" data-name="Ellipse 687" cx="13.355" cy="13.652" rx="13.355" ry="13.652" transform="translate(663.411 329.297)" fill="#3f3d56"/>
    <ellipse id="Ellipse_688" data-name="Ellipse 688" cx="13.355" cy="13.652" rx="13.355" ry="13.652" transform="translate(709.544 329.297)" fill="#3f3d56"/>
    <ellipse id="Ellipse_689" data-name="Ellipse 689" cx="13.355" cy="13.652" rx="13.355" ry="13.652" transform="translate(755.678 329.297)" fill="#da291c"/>
    <ellipse id="Ellipse_808" data-name="Ellipse 808" cx="13.355" cy="13.652" rx="13.355" ry="13.652" transform="translate(1214.185 329.297)" fill="#e6e6e6"/>
    <g id="Group_265" data-name="Group 265" transform="translate(-302.061 -7.305)">
      <rect id="Rectangle_946" data-name="Rectangle 946" width="179.545" height="78.551" rx="24" transform="translate(1261.092 484.357)" fill="#da291c"/>
      <rect id="Rectangle_947" data-name="Rectangle 947" width="179.545" height="78.551" rx="24" transform="translate(1065.061 484.357)" fill="#e6e6e6"/>
      <g id="Group_263" data-name="Group 263" transform="translate(1323.933 497.824)">
        <path id="Path_4662-606" data-name="Path 4662" d="M0,0H53.864V53.864H0Z" fill="none"/>
        <path id="Path_4663-607" data-name="Path 4663" d="M20.955,43.4a2.244,2.244,0,0,1-2.229-1.979,15.777,15.777,0,0,0-4.492-9.255,15.777,15.777,0,0,0-9.209-4.486,2.245,2.245,0,0,1-1.7-3.4A15.708,15.708,0,0,1,14.884,16.59,22.445,22.445,0,0,1,34.3,3q.061,0,.122,0A8.987,8.987,0,0,1,43.4,11.977q0,.061,0,.122A22.445,22.445,0,0,1,29.808,31.514,15.708,15.708,0,0,1,22.076,43.1,2.244,2.244,0,0,1,20.955,43.4ZM9.2,24.01a20.285,20.285,0,0,1,8.212,4.979A20.285,20.285,0,0,1,22.387,37.2a11.153,11.153,0,0,0,3.057-7.344,2.244,2.244,0,0,1,1.5-2.043A17.9,17.9,0,0,0,38.909,11.92a4.494,4.494,0,0,0-4.431-4.431A17.9,17.9,0,0,0,18.583,19.455a2.244,2.244,0,0,1-2.043,1.5A11.153,11.153,0,0,0,9.2,24.01Z" transform="translate(3.733 3.733)" fill="#fff"/>
        <path id="Path_4664-608" data-name="Path 4664" d="M7.6,32.061a19.171,19.171,0,0,1-2.312-.14A2.459,2.459,0,0,1,3.1,29.879a15.539,15.539,0,0,1,1.728-9.552,17.075,17.075,0,0,1,7.161-7.02,2.641,2.641,0,0,1,3.46.9,2.284,2.284,0,0,1-.963,3.226,11.7,11.7,0,0,0-6.45,9.89,12.786,12.786,0,0,0,10.609-6.013,2.641,2.641,0,0,1,3.46-.9,2.284,2.284,0,0,1,.963,3.226,17.251,17.251,0,0,1-7.53,6.676A18.767,18.767,0,0,1,7.6,32.061Z" transform="translate(1.292 16.176)" fill="#fff"/>
        <path id="Path_4665-609" data-name="Path 4665" d="M16.524,14.048a3.524,3.524,0,1,1,3.524-3.524A3.528,3.528,0,0,1,16.524,14.048Z" transform="translate(17.176 9.639)" fill="#fff"/>
      </g>
    </g>
    <path id="Path_2993-610" data-name="Path 2993" d="M559.176,365.157H717.159a5.153,5.153,0,0,0,0-10.306H559.176a5.153,5.153,0,0,0,0,10.306Z" transform="translate(313.62 276.02)" fill="#e4e4e4"/>
    <path id="Path_2995-611" data-name="Path 2995" d="M559.176,375.991h68.481a5.153,5.153,0,0,0,0-10.306H559.176a5.153,5.153,0,0,0,0,10.307Z" transform="translate(313.621 291.174)" fill="#e4e4e4"/>
  </g>
</svg>