<?xml version="1.0" encoding="UTF-8" standalone="no"?>
<!-- Created with Inkscape (http://www.inkscape.org/) -->

<svg
   width="720"
   height="687"
   viewBox="0 0 190.49999 181.76875"
   version="1.1"
   id="svg1"
   inkscape:version="1.3.2 (091e20e, 2023-11-25, custom)"
   sodipodi:docname="dlr.svg"
   xmlns:inkscape="http://www.inkscape.org/namespaces/inkscape"
   xmlns:sodipodi="http://sodipodi.sourceforge.net/DTD/sodipodi-0.dtd"
   xmlns="http://www.w3.org/2000/svg"
   xmlns:svg="http://www.w3.org/2000/svg">
  <sodipodi:namedview
     id="namedview1"
     pagecolor="#ffffff"
     bordercolor="#000000"
     borderopacity="0.25"
     inkscape:showpageshadow="2"
     inkscape:pageopacity="0.0"
     inkscape:pagecheckerboard="0"
     inkscape:deskcolor="#d1d1d1"
     inkscape:document-units="mm"
     inkscape:zoom="1.0847363"
     inkscape:cx="454.94928"
     inkscape:cy="337.87014"
     inkscape:window-width="1920"
     inkscape:window-height="1057"
     inkscape:window-x="-8"
     inkscape:window-y="-8"
     inkscape:window-maximized="1"
     inkscape:current-layer="layer1" />
  <defs
     id="defs1">
    <inkscape:perspective
       sodipodi:type="inkscape:persp3d"
       inkscape:vp_x="0 : 90.884375 : 1"
       inkscape:vp_y="0 : 1000 : 0"
       inkscape:vp_z="190.49999 : 90.884375 : 1"
       inkscape:persp3d-origin="95.249995 : 60.589583 : 1"
       id="perspective6" />
  </defs>
  <g
     inkscape:label="Layer 1"
     inkscape:groupmode="layer"
     id="layer1"
     style="fill:#ffffff">
    <g
       id="g5"
       transform="matrix(1.5238372,0,0,1.5238372,-49.895493,-86.011121)"
       style="fill:#ffffff">
      <g
         id="g3"
         transform="matrix(0.98185566,0,0,0.98185566,8.315417,-44.860154)"
         inkscape:label="g3"
         style="fill:#ffffff">
        <path
           id="rect3"
           style="fill:#ffffff;stroke-width:0.264583"
           d="M 109.7617 103.17599 L 109.7617 142.69934 L 67.32051 142.69934 L 67.32051 182.2227 L 24.879325 182.2227 L 24.879325 224.66388 L 67.32051 224.66388 L 67.32051 185.14053 L 109.7617 185.14053 L 109.7617 145.61717 L 152.20288 145.61717 L 152.20288 103.17599 L 109.7617 103.17599 z M 119.03258 110.96689 L 139.64667 110.96689 C 140.63345 110.96689 141.52401 111.20739 142.31824 111.68875 C 143.13654 112.1701 143.78626 112.82016 144.26761 113.63846 C 144.77303 114.45676 145.02573 115.34698 145.02573 116.30968 L 145.02573 123.0247 C 145.02573 123.98741 144.77303 124.87797 144.26761 125.69627 C 143.78626 126.51457 143.13654 127.16428 142.31824 127.64564 C 141.52401 128.12699 140.63345 128.36784 139.64667 128.36784 L 139.36449 128.36853 L 144.98981 135.01033 L 144.98981 136.92378 L 139.21356 136.92378 L 132.04746 128.38615 L 124.62854 128.40376 L 124.62854 136.92378 L 119.03258 136.92378 L 119.03258 110.96689 z M 124.62854 116.56251 L 124.62854 122.73596 L 139.35793 122.73596 L 139.35793 116.56251 L 124.62854 116.56251 z M 81.146016 150.95962 L 84.500417 150.95962 L 87.816826 150.95962 L 87.816826 160.9085 L 87.816826 170.81939 L 91.895504 170.81939 L 95.936189 170.81939 L 95.936189 173.86881 L 95.936189 176.88025 L 88.541103 176.88025 L 81.146016 176.88025 L 81.146016 163.91993 L 81.146016 150.95962 z M 32.05958 190.91471 C 32.755602 190.93871 33.667357 190.97482 34.795392 191.02282 C 35.947429 191.04682 37.099647 191.04682 38.251683 191.02282 C 39.139712 190.99882 40.135593 190.97498 41.239628 190.95098 C 42.367665 190.92698 43.303948 190.91471 44.047972 190.91471 C 49.088133 190.91471 52.820312 191.99507 55.24439 194.15513 C 57.692468 196.2912 58.916202 199.36332 58.916202 203.37145 C 58.916202 205.98753 58.316428 208.27936 57.116389 210.24742 C 55.916351 212.19148 54.176278 213.70369 51.896206 214.78373 C 49.640134 215.86376 46.9161 216.4036 43.723998 216.4036 C 43.339986 216.4036 42.823648 216.39168 42.175627 216.36768 C 41.551607 216.34368 40.89189 216.33176 40.195868 216.33176 C 39.499845 216.30776 38.875541 216.29584 38.323523 216.29584 C 37.123485 216.29584 35.947429 216.30776 34.795392 216.33176 C 33.667357 216.33176 32.755602 216.3556 32.05958 216.4036 L 32.05958 215.68381 C 32.803603 215.63581 33.355355 215.53977 33.715367 215.39576 C 34.075378 215.25176 34.315495 214.96361 34.435499 214.5316 C 34.555503 214.09958 34.615446 213.45178 34.615446 212.58776 L 34.615446 194.73089 C 34.615446 193.84287 34.555503 193.19506 34.435499 192.78705 C 34.315495 192.35505 34.063459 192.06691 33.679446 191.9229 C 33.319435 191.7549 32.779602 191.65884 32.05958 191.63484 L 32.05958 190.91471 z M 44.587812 191.563 C 43.483777 191.563 42.763771 191.76702 42.42776 192.17503 C 42.091749 192.58305 41.92384 193.41102 41.92384 194.65905 L 41.92384 212.6596 C 41.92384 213.90764 42.091749 214.73562 42.42776 215.14363 C 42.787771 215.55165 43.519697 215.75565 44.623732 215.75565 C 46.255783 215.75565 47.56399 215.28768 48.548022 214.35165 C 49.532053 213.39162 50.24014 211.99963 50.672154 210.17558 C 51.128168 208.35152 51.35602 206.13122 51.35602 203.51513 C 51.35602 200.82705 51.116249 198.60708 50.636233 196.85503 C 50.180219 195.07897 49.447949 193.75884 48.439916 192.89482 C 47.455885 192.00679 46.171862 191.563 44.587812 191.563 z " />
      </g>
      <g
         id="g1"
         transform="translate(1.5763627e-6,17.970666)"
         style="fill:#ffffff" />
      <g
         id="g2"
         transform="translate(3.6178258e-6,20.835557)"
         style="fill:#ffffff" />
    </g>
  </g>
</svg>
